<mxfile host="app.diagrams.net" agent="Mozilla/5.0 (Windows NT 10.0; Win64; x64) AppleWebKit/537.36 (KHTML, like Gecko) Chrome/128.0.0.0 Safari/537.36" version="24.7.8">
  <diagram name="Page-1" id="F_SyyrcAdbHDoPKD1IAH">
    <mxGraphModel dx="1195" dy="653" grid="1" gridSize="10" guides="1" tooltips="1" connect="1" arrows="1" fold="1" page="1" pageScale="1" pageWidth="1654" pageHeight="1169" math="0" shadow="0">
      <root>
        <mxCell id="0" />
        <mxCell id="1" parent="0" />
        <mxCell id="XMmS2_mtmJLEvCQ2yvIi-1" value="&lt;h1 style=&quot;margin-top: 0px;&quot;&gt;User Flow&lt;/h1&gt;" style="text;html=1;whiteSpace=wrap;overflow=hidden;rounded=0;" vertex="1" parent="1">
          <mxGeometry x="80" y="160" width="180" height="40" as="geometry" />
        </mxCell>
        <mxCell id="XMmS2_mtmJLEvCQ2yvIi-5" style="edgeStyle=orthogonalEdgeStyle;rounded=0;orthogonalLoop=1;jettySize=auto;html=1;exitX=1;exitY=0.5;exitDx=0;exitDy=0;entryX=0;entryY=0.5;entryDx=0;entryDy=0;" edge="1" parent="1" source="XMmS2_mtmJLEvCQ2yvIi-2" target="XMmS2_mtmJLEvCQ2yvIi-4">
          <mxGeometry relative="1" as="geometry" />
        </mxCell>
        <mxCell id="XMmS2_mtmJLEvCQ2yvIi-6" value="&lt;font style=&quot;font-size: 14px;&quot;&gt;Yes&lt;/font&gt;" style="edgeLabel;html=1;align=center;verticalAlign=middle;resizable=0;points=[];" vertex="1" connectable="0" parent="XMmS2_mtmJLEvCQ2yvIi-5">
          <mxGeometry x="0.0667" y="-2" relative="1" as="geometry">
            <mxPoint as="offset" />
          </mxGeometry>
        </mxCell>
        <mxCell id="XMmS2_mtmJLEvCQ2yvIi-9" style="edgeStyle=orthogonalEdgeStyle;rounded=0;orthogonalLoop=1;jettySize=auto;html=1;exitX=0.5;exitY=1;exitDx=0;exitDy=0;entryX=0.5;entryY=0;entryDx=0;entryDy=0;" edge="1" parent="1" source="XMmS2_mtmJLEvCQ2yvIi-2" target="XMmS2_mtmJLEvCQ2yvIi-7">
          <mxGeometry relative="1" as="geometry" />
        </mxCell>
        <mxCell id="XMmS2_mtmJLEvCQ2yvIi-10" value="No" style="edgeLabel;html=1;align=center;verticalAlign=middle;resizable=0;points=[];" vertex="1" connectable="0" parent="XMmS2_mtmJLEvCQ2yvIi-9">
          <mxGeometry x="-0.2" y="-1" relative="1" as="geometry">
            <mxPoint as="offset" />
          </mxGeometry>
        </mxCell>
        <mxCell id="XMmS2_mtmJLEvCQ2yvIi-2" value="Login ?" style="rhombus;whiteSpace=wrap;html=1;" vertex="1" parent="1">
          <mxGeometry x="200" y="240" width="80" height="80" as="geometry" />
        </mxCell>
        <mxCell id="XMmS2_mtmJLEvCQ2yvIi-14" style="edgeStyle=orthogonalEdgeStyle;rounded=0;orthogonalLoop=1;jettySize=auto;html=1;exitX=0;exitY=0.5;exitDx=0;exitDy=0;entryX=1;entryY=0.5;entryDx=0;entryDy=0;" edge="1" parent="1" source="XMmS2_mtmJLEvCQ2yvIi-3" target="XMmS2_mtmJLEvCQ2yvIi-13">
          <mxGeometry relative="1" as="geometry" />
        </mxCell>
        <mxCell id="XMmS2_mtmJLEvCQ2yvIi-17" value="" style="edgeStyle=orthogonalEdgeStyle;rounded=0;orthogonalLoop=1;jettySize=auto;html=1;" edge="1" parent="1" source="XMmS2_mtmJLEvCQ2yvIi-3" target="XMmS2_mtmJLEvCQ2yvIi-13">
          <mxGeometry relative="1" as="geometry" />
        </mxCell>
        <mxCell id="XMmS2_mtmJLEvCQ2yvIi-19" value="No" style="edgeLabel;html=1;align=center;verticalAlign=middle;resizable=0;points=[];" vertex="1" connectable="0" parent="XMmS2_mtmJLEvCQ2yvIi-17">
          <mxGeometry x="0.2238" y="1" relative="1" as="geometry">
            <mxPoint as="offset" />
          </mxGeometry>
        </mxCell>
        <mxCell id="XMmS2_mtmJLEvCQ2yvIi-21" style="edgeStyle=orthogonalEdgeStyle;rounded=0;orthogonalLoop=1;jettySize=auto;html=1;exitX=1;exitY=0.5;exitDx=0;exitDy=0;entryX=0;entryY=0.5;entryDx=0;entryDy=0;" edge="1" parent="1" source="XMmS2_mtmJLEvCQ2yvIi-3" target="XMmS2_mtmJLEvCQ2yvIi-20">
          <mxGeometry relative="1" as="geometry" />
        </mxCell>
        <mxCell id="XMmS2_mtmJLEvCQ2yvIi-28" value="Yes" style="edgeLabel;html=1;align=center;verticalAlign=middle;resizable=0;points=[];" vertex="1" connectable="0" parent="XMmS2_mtmJLEvCQ2yvIi-21">
          <mxGeometry x="-0.4643" y="2" relative="1" as="geometry">
            <mxPoint as="offset" />
          </mxGeometry>
        </mxCell>
        <mxCell id="XMmS2_mtmJLEvCQ2yvIi-3" value="Have&lt;div&gt;Account ?&lt;/div&gt;" style="rhombus;whiteSpace=wrap;html=1;" vertex="1" parent="1">
          <mxGeometry x="200" y="440" width="80" height="80" as="geometry" />
        </mxCell>
        <mxCell id="XMmS2_mtmJLEvCQ2yvIi-25" style="edgeStyle=orthogonalEdgeStyle;rounded=0;orthogonalLoop=1;jettySize=auto;html=1;exitX=0.5;exitY=0;exitDx=0;exitDy=0;entryX=0;entryY=0.5;entryDx=0;entryDy=0;" edge="1" parent="1" source="XMmS2_mtmJLEvCQ2yvIi-4" target="XMmS2_mtmJLEvCQ2yvIi-23">
          <mxGeometry relative="1" as="geometry" />
        </mxCell>
        <mxCell id="XMmS2_mtmJLEvCQ2yvIi-29" value="Post Ride" style="edgeLabel;html=1;align=center;verticalAlign=middle;resizable=0;points=[];" vertex="1" connectable="0" parent="XMmS2_mtmJLEvCQ2yvIi-25">
          <mxGeometry x="-0.6081" relative="1" as="geometry">
            <mxPoint y="-25" as="offset" />
          </mxGeometry>
        </mxCell>
        <mxCell id="XMmS2_mtmJLEvCQ2yvIi-27" style="edgeStyle=orthogonalEdgeStyle;rounded=0;orthogonalLoop=1;jettySize=auto;html=1;exitX=0.5;exitY=1;exitDx=0;exitDy=0;entryX=0;entryY=0.5;entryDx=0;entryDy=0;" edge="1" parent="1" source="XMmS2_mtmJLEvCQ2yvIi-4" target="XMmS2_mtmJLEvCQ2yvIi-24">
          <mxGeometry relative="1" as="geometry" />
        </mxCell>
        <mxCell id="XMmS2_mtmJLEvCQ2yvIi-30" value="Search Ride" style="edgeLabel;html=1;align=center;verticalAlign=middle;resizable=0;points=[];" vertex="1" connectable="0" parent="XMmS2_mtmJLEvCQ2yvIi-27">
          <mxGeometry x="-0.5673" y="-2" relative="1" as="geometry">
            <mxPoint x="2" y="21" as="offset" />
          </mxGeometry>
        </mxCell>
        <mxCell id="XMmS2_mtmJLEvCQ2yvIi-55" style="edgeStyle=orthogonalEdgeStyle;rounded=0;orthogonalLoop=1;jettySize=auto;html=1;exitX=1;exitY=0.5;exitDx=0;exitDy=0;entryX=0;entryY=0.5;entryDx=0;entryDy=0;" edge="1" parent="1" source="XMmS2_mtmJLEvCQ2yvIi-4" target="XMmS2_mtmJLEvCQ2yvIi-54">
          <mxGeometry relative="1" as="geometry" />
        </mxCell>
        <mxCell id="XMmS2_mtmJLEvCQ2yvIi-4" value="Ride&lt;div&gt;(Home)&lt;/div&gt;" style="rhombus;whiteSpace=wrap;html=1;" vertex="1" parent="1">
          <mxGeometry x="400" y="240" width="80" height="80" as="geometry" />
        </mxCell>
        <mxCell id="XMmS2_mtmJLEvCQ2yvIi-11" style="edgeStyle=orthogonalEdgeStyle;rounded=0;orthogonalLoop=1;jettySize=auto;html=1;exitX=0.5;exitY=1;exitDx=0;exitDy=0;entryX=0.5;entryY=0;entryDx=0;entryDy=0;" edge="1" parent="1" source="XMmS2_mtmJLEvCQ2yvIi-7" target="XMmS2_mtmJLEvCQ2yvIi-3">
          <mxGeometry relative="1" as="geometry" />
        </mxCell>
        <mxCell id="XMmS2_mtmJLEvCQ2yvIi-7" value="/login" style="rounded=0;whiteSpace=wrap;html=1;" vertex="1" parent="1">
          <mxGeometry x="200" y="360" width="80" height="40" as="geometry" />
        </mxCell>
        <mxCell id="XMmS2_mtmJLEvCQ2yvIi-15" style="edgeStyle=orthogonalEdgeStyle;rounded=0;orthogonalLoop=1;jettySize=auto;html=1;exitX=1;exitY=0.5;exitDx=0;exitDy=0;entryX=0;entryY=0.5;entryDx=0;entryDy=0;" edge="1" parent="1" source="XMmS2_mtmJLEvCQ2yvIi-8" target="XMmS2_mtmJLEvCQ2yvIi-2">
          <mxGeometry relative="1" as="geometry" />
        </mxCell>
        <mxCell id="XMmS2_mtmJLEvCQ2yvIi-8" value="&lt;font size=&quot;1&quot; style=&quot;&quot;&gt;&lt;b style=&quot;font-size: 20px;&quot;&gt;/&lt;/b&gt;&lt;/font&gt;" style="rounded=0;whiteSpace=wrap;html=1;" vertex="1" parent="1">
          <mxGeometry x="80" y="260" width="80" height="40" as="geometry" />
        </mxCell>
        <mxCell id="XMmS2_mtmJLEvCQ2yvIi-16" style="edgeStyle=orthogonalEdgeStyle;rounded=0;orthogonalLoop=1;jettySize=auto;html=1;exitX=0.5;exitY=0;exitDx=0;exitDy=0;" edge="1" parent="1" source="XMmS2_mtmJLEvCQ2yvIi-13">
          <mxGeometry relative="1" as="geometry">
            <mxPoint x="180" y="280" as="targetPoint" />
          </mxGeometry>
        </mxCell>
        <mxCell id="XMmS2_mtmJLEvCQ2yvIi-13" value="/login/register" style="rounded=0;whiteSpace=wrap;html=1;" vertex="1" parent="1">
          <mxGeometry x="40" y="460" width="100" height="40" as="geometry" />
        </mxCell>
        <mxCell id="XMmS2_mtmJLEvCQ2yvIi-22" style="edgeStyle=orthogonalEdgeStyle;rounded=0;orthogonalLoop=1;jettySize=auto;html=1;exitX=0.5;exitY=0;exitDx=0;exitDy=0;" edge="1" parent="1" source="XMmS2_mtmJLEvCQ2yvIi-20">
          <mxGeometry relative="1" as="geometry">
            <mxPoint x="300" y="280" as="targetPoint" />
          </mxGeometry>
        </mxCell>
        <mxCell id="XMmS2_mtmJLEvCQ2yvIi-20" value="/login/user" style="rounded=0;whiteSpace=wrap;html=1;" vertex="1" parent="1">
          <mxGeometry x="320" y="460" width="100" height="40" as="geometry" />
        </mxCell>
        <mxCell id="XMmS2_mtmJLEvCQ2yvIi-42" style="edgeStyle=orthogonalEdgeStyle;rounded=0;orthogonalLoop=1;jettySize=auto;html=1;exitX=1;exitY=0.5;exitDx=0;exitDy=0;entryX=0;entryY=0.5;entryDx=0;entryDy=0;" edge="1" parent="1" source="XMmS2_mtmJLEvCQ2yvIi-23" target="XMmS2_mtmJLEvCQ2yvIi-37">
          <mxGeometry relative="1" as="geometry" />
        </mxCell>
        <mxCell id="XMmS2_mtmJLEvCQ2yvIi-23" value="/post-ride" style="rounded=0;whiteSpace=wrap;html=1;" vertex="1" parent="1">
          <mxGeometry x="520" y="120" width="80" height="40" as="geometry" />
        </mxCell>
        <mxCell id="XMmS2_mtmJLEvCQ2yvIi-45" style="edgeStyle=orthogonalEdgeStyle;rounded=0;orthogonalLoop=1;jettySize=auto;html=1;exitX=1;exitY=0.5;exitDx=0;exitDy=0;entryX=0;entryY=0.5;entryDx=0;entryDy=0;" edge="1" parent="1" source="XMmS2_mtmJLEvCQ2yvIi-24" target="XMmS2_mtmJLEvCQ2yvIi-31">
          <mxGeometry relative="1" as="geometry" />
        </mxCell>
        <mxCell id="XMmS2_mtmJLEvCQ2yvIi-24" value="/search-&lt;span style=&quot;background-color: initial;&quot;&gt;ride&lt;/span&gt;" style="rounded=0;whiteSpace=wrap;html=1;" vertex="1" parent="1">
          <mxGeometry x="520" y="400" width="80" height="40" as="geometry" />
        </mxCell>
        <mxCell id="XMmS2_mtmJLEvCQ2yvIi-44" style="edgeStyle=orthogonalEdgeStyle;rounded=0;orthogonalLoop=1;jettySize=auto;html=1;exitX=1;exitY=0.5;exitDx=0;exitDy=0;entryX=0;entryY=0.5;entryDx=0;entryDy=0;" edge="1" parent="1" source="XMmS2_mtmJLEvCQ2yvIi-31" target="XMmS2_mtmJLEvCQ2yvIi-32">
          <mxGeometry relative="1" as="geometry" />
        </mxCell>
        <mxCell id="XMmS2_mtmJLEvCQ2yvIi-31" value="/&lt;span style=&quot;background-color: initial;&quot;&gt;ride-result&lt;/span&gt;" style="rounded=0;whiteSpace=wrap;html=1;" vertex="1" parent="1">
          <mxGeometry x="640" y="400" width="80" height="40" as="geometry" />
        </mxCell>
        <mxCell id="XMmS2_mtmJLEvCQ2yvIi-47" style="edgeStyle=orthogonalEdgeStyle;rounded=0;orthogonalLoop=1;jettySize=auto;html=1;exitX=1;exitY=0.5;exitDx=0;exitDy=0;entryX=0;entryY=0.5;entryDx=0;entryDy=0;" edge="1" parent="1" source="XMmS2_mtmJLEvCQ2yvIi-32" target="XMmS2_mtmJLEvCQ2yvIi-34">
          <mxGeometry relative="1" as="geometry" />
        </mxCell>
        <mxCell id="XMmS2_mtmJLEvCQ2yvIi-32" value="/&lt;span style=&quot;background-color: initial;&quot;&gt;ride-detail&lt;/span&gt;" style="rounded=0;whiteSpace=wrap;html=1;" vertex="1" parent="1">
          <mxGeometry x="760" y="400" width="80" height="40" as="geometry" />
        </mxCell>
        <mxCell id="XMmS2_mtmJLEvCQ2yvIi-48" style="edgeStyle=orthogonalEdgeStyle;rounded=0;orthogonalLoop=1;jettySize=auto;html=1;exitX=1;exitY=0.5;exitDx=0;exitDy=0;entryX=0;entryY=0.5;entryDx=0;entryDy=0;" edge="1" parent="1" source="XMmS2_mtmJLEvCQ2yvIi-34" target="XMmS2_mtmJLEvCQ2yvIi-35">
          <mxGeometry relative="1" as="geometry" />
        </mxCell>
        <mxCell id="XMmS2_mtmJLEvCQ2yvIi-34" value="/trip-detail" style="rounded=0;whiteSpace=wrap;html=1;" vertex="1" parent="1">
          <mxGeometry x="880" y="400" width="80" height="40" as="geometry" />
        </mxCell>
        <mxCell id="XMmS2_mtmJLEvCQ2yvIi-51" style="edgeStyle=orthogonalEdgeStyle;rounded=0;orthogonalLoop=1;jettySize=auto;html=1;exitX=1;exitY=0.5;exitDx=0;exitDy=0;entryX=0;entryY=0.5;entryDx=0;entryDy=0;" edge="1" parent="1" source="XMmS2_mtmJLEvCQ2yvIi-35" target="XMmS2_mtmJLEvCQ2yvIi-36">
          <mxGeometry relative="1" as="geometry" />
        </mxCell>
        <mxCell id="XMmS2_mtmJLEvCQ2yvIi-35" value="/payment-summary" style="rounded=0;whiteSpace=wrap;html=1;" vertex="1" parent="1">
          <mxGeometry x="1000" y="400" width="120" height="40" as="geometry" />
        </mxCell>
        <mxCell id="XMmS2_mtmJLEvCQ2yvIi-53" style="edgeStyle=orthogonalEdgeStyle;rounded=0;orthogonalLoop=1;jettySize=auto;html=1;exitX=1;exitY=0.5;exitDx=0;exitDy=0;entryX=1;entryY=1;entryDx=0;entryDy=0;" edge="1" parent="1" source="XMmS2_mtmJLEvCQ2yvIi-36" target="XMmS2_mtmJLEvCQ2yvIi-4">
          <mxGeometry relative="1" as="geometry">
            <Array as="points">
              <mxPoint x="1260" y="420" />
              <mxPoint x="1260" y="360" />
              <mxPoint x="460" y="360" />
            </Array>
          </mxGeometry>
        </mxCell>
        <mxCell id="XMmS2_mtmJLEvCQ2yvIi-36" value="/feedback" style="rounded=0;whiteSpace=wrap;html=1;" vertex="1" parent="1">
          <mxGeometry x="1160" y="400" width="80" height="40" as="geometry" />
        </mxCell>
        <mxCell id="XMmS2_mtmJLEvCQ2yvIi-43" style="edgeStyle=orthogonalEdgeStyle;rounded=0;orthogonalLoop=1;jettySize=auto;html=1;exitX=1;exitY=0.5;exitDx=0;exitDy=0;entryX=0;entryY=0.5;entryDx=0;entryDy=0;" edge="1" parent="1" source="XMmS2_mtmJLEvCQ2yvIi-37" target="XMmS2_mtmJLEvCQ2yvIi-38">
          <mxGeometry relative="1" as="geometry" />
        </mxCell>
        <mxCell id="XMmS2_mtmJLEvCQ2yvIi-37" value="/ride-request" style="rounded=0;whiteSpace=wrap;html=1;" vertex="1" parent="1">
          <mxGeometry x="640" y="120" width="80" height="40" as="geometry" />
        </mxCell>
        <mxCell id="XMmS2_mtmJLEvCQ2yvIi-46" style="edgeStyle=orthogonalEdgeStyle;rounded=0;orthogonalLoop=1;jettySize=auto;html=1;exitX=1;exitY=0.5;exitDx=0;exitDy=0;entryX=0;entryY=0.5;entryDx=0;entryDy=0;" edge="1" parent="1" source="XMmS2_mtmJLEvCQ2yvIi-38" target="XMmS2_mtmJLEvCQ2yvIi-39">
          <mxGeometry relative="1" as="geometry" />
        </mxCell>
        <mxCell id="XMmS2_mtmJLEvCQ2yvIi-38" value="/request-detail" style="rounded=0;whiteSpace=wrap;html=1;" vertex="1" parent="1">
          <mxGeometry x="760" y="120" width="80" height="40" as="geometry" />
        </mxCell>
        <mxCell id="XMmS2_mtmJLEvCQ2yvIi-49" style="edgeStyle=orthogonalEdgeStyle;rounded=0;orthogonalLoop=1;jettySize=auto;html=1;exitX=1;exitY=0.5;exitDx=0;exitDy=0;entryX=0;entryY=0.5;entryDx=0;entryDy=0;" edge="1" parent="1" source="XMmS2_mtmJLEvCQ2yvIi-39" target="XMmS2_mtmJLEvCQ2yvIi-40">
          <mxGeometry relative="1" as="geometry" />
        </mxCell>
        <mxCell id="XMmS2_mtmJLEvCQ2yvIi-39" value="/trip-detail" style="rounded=0;whiteSpace=wrap;html=1;" vertex="1" parent="1">
          <mxGeometry x="880" y="120" width="80" height="40" as="geometry" />
        </mxCell>
        <mxCell id="XMmS2_mtmJLEvCQ2yvIi-50" style="edgeStyle=orthogonalEdgeStyle;rounded=0;orthogonalLoop=1;jettySize=auto;html=1;exitX=1;exitY=0.5;exitDx=0;exitDy=0;entryX=0;entryY=0.5;entryDx=0;entryDy=0;" edge="1" parent="1" source="XMmS2_mtmJLEvCQ2yvIi-40" target="XMmS2_mtmJLEvCQ2yvIi-41">
          <mxGeometry relative="1" as="geometry" />
        </mxCell>
        <mxCell id="XMmS2_mtmJLEvCQ2yvIi-40" value="/payment-summary" style="rounded=0;whiteSpace=wrap;html=1;" vertex="1" parent="1">
          <mxGeometry x="1000" y="120" width="120" height="40" as="geometry" />
        </mxCell>
        <mxCell id="XMmS2_mtmJLEvCQ2yvIi-52" style="edgeStyle=orthogonalEdgeStyle;rounded=0;orthogonalLoop=1;jettySize=auto;html=1;exitX=1;exitY=0.5;exitDx=0;exitDy=0;entryX=1;entryY=0;entryDx=0;entryDy=0;" edge="1" parent="1" source="XMmS2_mtmJLEvCQ2yvIi-41" target="XMmS2_mtmJLEvCQ2yvIi-4">
          <mxGeometry relative="1" as="geometry">
            <Array as="points">
              <mxPoint x="1260" y="140" />
              <mxPoint x="1260" y="200" />
              <mxPoint x="460" y="200" />
            </Array>
          </mxGeometry>
        </mxCell>
        <mxCell id="XMmS2_mtmJLEvCQ2yvIi-41" value="/feedback" style="rounded=0;whiteSpace=wrap;html=1;" vertex="1" parent="1">
          <mxGeometry x="1160" y="120" width="80" height="40" as="geometry" />
        </mxCell>
        <mxCell id="XMmS2_mtmJLEvCQ2yvIi-57" style="edgeStyle=orthogonalEdgeStyle;rounded=0;orthogonalLoop=1;jettySize=auto;html=1;exitX=1;exitY=0.5;exitDx=0;exitDy=0;entryX=0;entryY=0.5;entryDx=0;entryDy=0;" edge="1" parent="1" source="XMmS2_mtmJLEvCQ2yvIi-54" target="XMmS2_mtmJLEvCQ2yvIi-56">
          <mxGeometry relative="1" as="geometry" />
        </mxCell>
        <mxCell id="XMmS2_mtmJLEvCQ2yvIi-58" value="&lt;font style=&quot;font-size: 13px;&quot;&gt;Yes&lt;/font&gt;" style="edgeLabel;html=1;align=center;verticalAlign=middle;resizable=0;points=[];" vertex="1" connectable="0" parent="XMmS2_mtmJLEvCQ2yvIi-57">
          <mxGeometry x="-0.125" y="1" relative="1" as="geometry">
            <mxPoint as="offset" />
          </mxGeometry>
        </mxCell>
        <mxCell id="XMmS2_mtmJLEvCQ2yvIi-54" value="Logout ?" style="rhombus;whiteSpace=wrap;html=1;" vertex="1" parent="1">
          <mxGeometry x="560" y="240" width="80" height="80" as="geometry" />
        </mxCell>
        <mxCell id="XMmS2_mtmJLEvCQ2yvIi-56" value="/logout" style="rounded=0;whiteSpace=wrap;html=1;" vertex="1" parent="1">
          <mxGeometry x="720" y="260" width="80" height="40" as="geometry" />
        </mxCell>
        <mxCell id="XMmS2_mtmJLEvCQ2yvIi-60" style="edgeStyle=orthogonalEdgeStyle;rounded=0;orthogonalLoop=1;jettySize=auto;html=1;exitX=0.5;exitY=1;exitDx=0;exitDy=0;entryX=0.802;entryY=0.65;entryDx=0;entryDy=0;entryPerimeter=0;" edge="1" parent="1" source="XMmS2_mtmJLEvCQ2yvIi-54" target="XMmS2_mtmJLEvCQ2yvIi-4">
          <mxGeometry relative="1" as="geometry" />
        </mxCell>
        <mxCell id="XMmS2_mtmJLEvCQ2yvIi-61" value="&lt;font style=&quot;font-size: 14px;&quot;&gt;No&lt;/font&gt;" style="edgeLabel;html=1;align=center;verticalAlign=middle;resizable=0;points=[];" vertex="1" connectable="0" parent="XMmS2_mtmJLEvCQ2yvIi-60">
          <mxGeometry x="0.1823" y="3" relative="1" as="geometry">
            <mxPoint as="offset" />
          </mxGeometry>
        </mxCell>
      </root>
    </mxGraphModel>
  </diagram>
</mxfile>
